<?xml version="1.0" encoding="UTF-8" standalone="no"?><!DOCTYPE svg PUBLIC "-//W3C//DTD SVG 1.1//EN" "http://www.w3.org/Graphics/SVG/1.1/DTD/svg11.dtd"><svg width="100%" height="100%" viewBox="0 0 64 11" version="1.1" xmlns="http://www.w3.org/2000/svg" xmlns:xlink="http://www.w3.org/1999/xlink" xml:space="preserve" xmlns:serif="http://www.serif.com/" style="fill-rule:evenodd;clip-rule:evenodd;stroke-linejoin:round;stroke-miterlimit:1.41421;"><g><path d="M0,8.947l1.371,0l0,-0.68c0.292,0.266 1.01,0.857 2.392,0.857c1.707,0 3.178,-1.064 3.178,-2.857c0,-1.605 -1.247,-2.788 -3.235,-2.788c-1.156,0 -1.718,0.355 -2.313,0.729l0,-2.423l-1.393,0l0,7.162Zm1.393,-3.694c0.427,-0.306 0.999,-0.729 2.01,-0.729c1.067,0 2.123,0.591 2.123,1.783c0,1.162 -1,1.773 -2.078,1.773c-0.954,0 -1.516,-0.404 -2.055,-0.768l0,-2.059Z" style="fill:#00b0eb;fill-rule:nonzero;"/><path d="M8.697,5.696c0.281,-1.015 1.123,-1.231 1.853,-1.231c0.999,0 1.696,0.335 1.909,1.231l-3.762,0Zm3.605,1.665c-0.202,0.414 -0.786,0.778 -1.662,0.778c-1.719,-0.059 -1.932,-1.162 -1.988,-1.497l5.289,0c0,-1.911 -1.089,-3.143 -3.358,-3.163c-2.223,0 -3.346,1.311 -3.346,2.808c0,1.655 1.291,2.837 3.448,2.837c2.234,0 3.043,-1.33 3.144,-1.763l-1.527,0Z" style="fill:#00b0eb;fill-rule:nonzero;"/><path d="M14.516,3.184l0.652,0l-0.607,1.517l0.742,0l0.707,-1.468l0,-1.448l-1.494,0l0,1.399Z" style="fill:#00b0eb;fill-rule:nonzero;"/><path d="M16.812,10.602c0.247,0.079 0.674,0.157 1.213,0.157c1.1,0 1.976,-0.394 2.515,-1.389l3.133,-5.713l-1.527,0l-2.044,3.861l-2.044,-3.861l-1.527,0l2.415,4.364c0.19,0.345 0.247,0.581 0.247,0.827c0,0.404 -0.382,0.828 -1.528,0.828c-0.37,0 -0.674,-0.079 -0.853,-0.118l0,1.044Z" style="fill:#006cb0;fill-rule:nonzero;"/><path d="M29.28,5.45c0,-0.729 -0.057,-1.971 -2.965,-1.971c-1.123,0 -2.729,0.247 -3.066,1.685l1.449,0c0.078,-0.286 0.348,-0.699 1.628,-0.699c1.146,0 1.561,0.285 1.561,0.689l0,0.237c-1.943,0.098 -4.975,0.354 -4.975,2.137c0,1.301 1.539,1.596 2.336,1.596c1.19,0 2.055,-0.414 2.639,-0.709c0,0.177 0.034,0.354 0.079,0.532l1.426,0c-0.09,-0.148 -0.112,-0.503 -0.112,-0.857l0,-2.64Zm-1.393,2.039c-0.539,0.286 -1.381,0.689 -2.437,0.689c-0.685,0 -1.022,-0.285 -1.011,-0.738c0.012,-0.463 0.416,-0.72 1.281,-0.897c0.651,-0.138 1.358,-0.236 2.167,-0.266l0,1.212Z" style="fill:#006cb0;fill-rule:nonzero;"/><path d="M35.419,7.055c-0.124,0.473 -0.73,1.025 -1.932,1.025c-1.336,0 -1.954,-0.847 -1.954,-1.862c0,-0.847 0.753,-1.694 2.066,-1.694c1.045,0 1.64,0.532 1.775,0.955l1.392,0c-0.101,-0.896 -1.044,-2.009 -3.256,-2c-2.145,0.01 -3.392,1.301 -3.392,2.69c0,2.128 1.584,2.955 3.515,2.955c2.212,0 3.055,-1.33 3.246,-2.069l-1.46,0Z" style="fill:#006cb0;fill-rule:nonzero;"/><path d="M36.965,8.947l1.393,0l0,-3.645c0.348,-0.374 0.797,-0.778 1.909,-0.778c0.932,0 1.291,0.443 1.291,1.487l0,2.936l1.393,0l0,-3.389c0,-1.616 -1.101,-2.079 -2.358,-2.079c-1.225,0 -1.842,0.463 -2.235,0.838l0,-2.532l-1.393,0l0,7.162Z" style="fill:#006cb0;fill-rule:nonzero;"/><path d="M49.917,5.45c0,-0.729 -0.057,-1.971 -2.965,-1.971c-1.123,0 -2.729,0.247 -3.066,1.685l1.449,0c0.078,-0.286 0.348,-0.699 1.628,-0.699c1.146,0 1.561,0.285 1.561,0.689l0,0.237c-1.943,0.098 -4.975,0.354 -4.975,2.137c0,1.301 1.539,1.596 2.336,1.596c1.19,0 2.055,-0.414 2.639,-0.709c0,0.177 0.034,0.354 0.079,0.532l1.426,0c-0.09,-0.148 -0.112,-0.503 -0.112,-0.857l0,-2.64Zm-1.393,2.039c-0.539,0.286 -1.381,0.689 -2.437,0.689c-0.685,0 -1.022,-0.285 -1.011,-0.738c0.012,-0.463 0.416,-0.72 1.281,-0.897c0.651,-0.138 1.358,-0.236 2.167,-0.266l0,1.212Z" style="fill:#006cb0;fill-rule:nonzero;"/><path d="M55.812,8.947l1.37,0l0,-7.162l-1.392,0l0,2.423c-0.595,-0.374 -1.157,-0.729 -2.314,-0.729c-1.987,0 -3.234,1.183 -3.234,2.788c0,1.793 1.471,2.857 3.178,2.857c1.382,0 2.078,-0.591 2.392,-0.857l0,0.68Zm-0.022,-1.635c-0.539,0.364 -1.101,0.768 -2.055,0.768c-1.078,0 -2.078,-0.611 -2.078,-1.773c0,-1.192 1.056,-1.783 2.123,-1.783c1.01,0 1.583,0.423 2.01,0.729l0,2.059Z" style="fill:#006cb0;fill-rule:nonzero;"/></g><path d="M62.709,0.349l-0.868,1.64l1.736,0l0,0.699l-1.736,0l0.868,1.64l-0.554,0.349l-0.868,-1.64l-0.002,0.003l-0.371,-0.702l0.371,-0.701l0.002,0.003l0.868,-1.64l0.554,0.349Z" style="fill:#006cb0;fill-rule:nonzero;"/><path d="M59.864,0.349l0.868,1.64l-1.736,0l0,0.699l1.736,0l-0.868,1.64l0.554,0.349l0.868,-1.64l0.002,0.003l0.371,-0.702l-0.371,-0.701l-0.002,0.003l-0.868,-1.64l-0.554,0.349Z" style="fill:#00b0eb;fill-rule:nonzero;"/></svg>